<svg width="32" height="32" viewBox="0 0 32 32" fill="none" xmlns="http://www.w3.org/2000/svg">
    <path d="M16 2.66669C8.63621 2.66669 2.66667 8.63623 2.66667 16C2.66667 23.3638 8.63621 29.3334 16 29.3334C23.3638 29.3334 29.3333 23.3638 29.3333 16C29.3333 8.63623 23.3638 2.66669 16 2.66669Z" fill="#4CAF50"/>
    <path d="M16 5.33331C10.109 5.33331 5.33333 10.109 5.33333 16C5.33333 21.891 10.109 26.6666 16 26.6666C21.891 26.6666 26.6667 21.891 26.6667 16C26.6667 10.109 21.891 5.33331 16 5.33331Z" fill="#2E7D32"/>
    <path d="M16 8C11.5817 8 8 11.5817 8 16C8 20.4183 11.5817 24 16 24C20.4183 24 24 20.4183 24 16C24 11.5817 20.4183 8 16 8Z" fill="#81C784"/>
</svg>